<svg width="656" height="134" viewBox="0 0 656 134" fill="none" xmlns="http://www.w3.org/2000/svg">
<g id="Frame">
<g id="mu">
<g id="Vector">
<mask id="path-2-inside-1" fill="white">
<path d="M356.675 103.837C356.675 96.8546 356.675 89.8719 356.675 82.8892C356.675 81.926 356.675 80.9629 356.675 79.9998C356.827 76.4181 357.419 75.2894 359.293 74.8681C362.571 74.1156 364.679 74.8681 366.002 77.8779C367.862 81.9712 369.529 86.1698 371.389 90.2632C371.954 91.4972 372.766 93.2729 373.703 93.4535C375.412 93.7545 375.618 91.4972 376.224 90.1879C377.974 86.4407 379.545 82.5882 381.267 78.8109C382.989 75.0336 384.146 74.4317 387.811 74.8681C389.795 75.1089 390.497 75.771 390.869 77.9682C391.009 79.0397 391.073 80.1214 391.062 81.2037V125.989C391.074 126.712 391.051 127.436 390.993 128.156C390.635 131.889 388.031 133.589 384.876 131.994C384.055 131.454 383.439 130.61 383.14 129.616C382.92 128.561 382.86 127.473 382.961 126.396C382.961 118.45 382.961 110.504 382.961 102.558C382.844 101.284 382.618 100.024 382.286 98.7959C380.619 98.7959 380.371 100.542 379.724 101.67C378.663 103.491 377.767 105.432 376.748 107.299C376.254 108.23 375.673 109.103 375.012 109.902C374.878 110.101 374.702 110.263 374.5 110.375C374.298 110.486 374.074 110.544 373.848 110.544C373.621 110.544 373.398 110.486 373.196 110.375C372.994 110.263 372.818 110.101 372.684 109.902C371.968 108.967 371.336 107.959 370.796 106.892C369.556 104.62 368.427 102.272 367.145 100.03C366.856 99.4881 366.167 99.2323 365.644 98.841C365.333 99.4429 365.092 100.085 364.927 100.752C364.831 101.712 364.803 102.678 364.845 103.642V124.981C364.845 125.944 364.845 126.907 364.845 127.87C364.666 131.768 361.896 133.649 358.686 131.934C357.949 131.453 357.399 130.692 357.143 129.797C356.871 128.633 356.764 127.43 356.827 126.23C356.827 118.706 356.827 111.302 356.827 103.837H356.675Z"/>
</mask>
<path d="M356.675 103.837C356.675 96.8546 356.675 89.8719 356.675 82.8892C356.675 81.926 356.675 80.9629 356.675 79.9998C356.827 76.4181 357.419 75.2894 359.293 74.8681C362.571 74.1156 364.679 74.8681 366.002 77.8779C367.862 81.9712 369.529 86.1698 371.389 90.2632C371.954 91.4972 372.766 93.2729 373.703 93.4535C375.412 93.7545 375.618 91.4972 376.224 90.1879C377.974 86.4407 379.545 82.5882 381.267 78.8109C382.989 75.0336 384.146 74.4317 387.811 74.8681C389.795 75.1089 390.497 75.771 390.869 77.9682C391.009 79.0397 391.073 80.1214 391.062 81.2037V125.989C391.074 126.712 391.051 127.436 390.993 128.156C390.635 131.889 388.031 133.589 384.876 131.994C384.055 131.454 383.439 130.61 383.14 129.616C382.92 128.561 382.86 127.473 382.961 126.396C382.961 118.45 382.961 110.504 382.961 102.558C382.844 101.284 382.618 100.024 382.286 98.7959C380.619 98.7959 380.371 100.542 379.724 101.67C378.663 103.491 377.767 105.432 376.748 107.299C376.254 108.23 375.673 109.103 375.012 109.902C374.878 110.101 374.702 110.263 374.5 110.375C374.298 110.486 374.074 110.544 373.848 110.544C373.621 110.544 373.398 110.486 373.196 110.375C372.994 110.263 372.818 110.101 372.684 109.902C371.968 108.967 371.336 107.959 370.796 106.892C369.556 104.62 368.427 102.272 367.145 100.03C366.856 99.4881 366.167 99.2323 365.644 98.841C365.333 99.4429 365.092 100.085 364.927 100.752C364.831 101.712 364.803 102.678 364.845 103.642V124.981C364.845 125.944 364.845 126.907 364.845 127.87C364.666 131.768 361.896 133.649 358.686 131.934C357.949 131.453 357.399 130.692 357.143 129.797C356.871 128.633 356.764 127.43 356.827 126.23C356.827 118.706 356.827 111.302 356.827 103.837H356.675Z" fill="#E5E5E5" stroke="black" stroke-width="6" mask="url(#path-2-inside-1)"/>
</g>
</g>
<g id="m">
<g id="Vector_2">
<mask id="path-3-inside-2" fill="white">
<path d="M140.943 103.416V80.2858C140.833 74.823 142.5 74.4618 146.839 74.823C148.754 74.9735 149.677 76.5085 150.408 78.1789C151.978 81.7606 153.494 85.3572 155.037 88.9539C155.525 90.1639 156.072 91.3444 156.676 92.4904C157.585 93.9953 158.522 93.9953 159.431 92.37C160.341 90.7448 161.03 88.9539 161.801 87.2083C163.041 84.3941 164.212 81.5348 165.493 78.7357C167.188 75.0186 168.703 74.221 172.382 74.838C173.054 74.8449 173.698 75.1325 174.182 75.6418C174.667 76.1511 174.954 76.8435 174.986 77.5769C175.107 78.65 175.153 79.7317 175.123 80.8125C175.123 95.8614 175.123 110.91 175.123 125.959C175.123 126.802 175.123 127.645 175.123 128.487C174.903 131.497 173.828 132.415 170.99 132.325C168.152 132.235 167.367 131.317 167.326 128.412C167.215 120.346 167.202 112.28 167.16 104.229C167.205 103.728 167.205 103.224 167.16 102.724C166.926 101.354 166.609 100.015 166.32 98.6605C164.722 98.8712 164.446 100.481 163.785 101.67C162.738 103.506 161.842 105.448 160.85 107.314C160.48 108.054 160.046 108.754 159.555 109.405C158.384 110.835 157.337 110.91 156.304 109.255C154.926 107.178 154.031 104.861 152.777 102.739C151.937 101.324 151.62 98.5551 149.788 99.112C148.41 99.5333 149.113 102.122 149.099 103.732C149.099 110.835 149.099 117.938 149.099 125.041C149.126 126.121 149.099 127.201 149.016 128.277C148.754 131.287 147.845 132.205 145.324 132.31C142.265 132.445 141.039 131.317 141.012 127.931C141.012 119.744 141.012 111.557 141.012 103.386L140.943 103.416Z"/>
</mask>
<path d="M140.943 103.416V80.2858C140.833 74.823 142.5 74.4618 146.839 74.823C148.754 74.9735 149.677 76.5085 150.408 78.1789C151.978 81.7606 153.494 85.3572 155.037 88.9539C155.525 90.1639 156.072 91.3444 156.676 92.4904C157.585 93.9953 158.522 93.9953 159.431 92.37C160.341 90.7448 161.03 88.9539 161.801 87.2083C163.041 84.3941 164.212 81.5348 165.493 78.7357C167.188 75.0186 168.703 74.221 172.382 74.838C173.054 74.8449 173.698 75.1325 174.182 75.6418C174.667 76.1511 174.954 76.8435 174.986 77.5769C175.107 78.65 175.153 79.7317 175.123 80.8125C175.123 95.8614 175.123 110.91 175.123 125.959C175.123 126.802 175.123 127.645 175.123 128.487C174.903 131.497 173.828 132.415 170.99 132.325C168.152 132.235 167.367 131.317 167.326 128.412C167.215 120.346 167.202 112.28 167.16 104.229C167.205 103.728 167.205 103.224 167.16 102.724C166.926 101.354 166.609 100.015 166.32 98.6605C164.722 98.8712 164.446 100.481 163.785 101.67C162.738 103.506 161.842 105.448 160.85 107.314C160.48 108.054 160.046 108.754 159.555 109.405C158.384 110.835 157.337 110.91 156.304 109.255C154.926 107.178 154.031 104.861 152.777 102.739C151.937 101.324 151.62 98.5551 149.788 99.112C148.41 99.5333 149.113 102.122 149.099 103.732C149.099 110.835 149.099 117.938 149.099 125.041C149.126 126.121 149.099 127.201 149.016 128.277C148.754 131.287 147.845 132.205 145.324 132.31C142.265 132.445 141.039 131.317 141.012 127.931C141.012 119.744 141.012 111.557 141.012 103.386L140.943 103.416Z" fill="#E5E5E5" stroke="black" stroke-width="6" mask="url(#path-3-inside-2)"/>
</g>
</g>
<g id="o">
<g id="Vector_3">
<mask id="path-4-inside-3" fill="white">
<path d="M655.482 103.085C655.248 109.104 654.889 114.733 653.043 120.105C652.102 123.066 650.632 125.792 648.717 128.126C647.438 129.754 645.843 131.049 644.048 131.917C642.253 132.786 640.302 133.205 638.34 133.146C636.377 133.087 634.451 132.551 632.702 131.575C630.954 130.6 629.426 129.211 628.231 127.509C626.068 124.609 624.541 121.206 623.767 117.562C621.632 108.316 621.632 98.636 623.767 89.3903C624.498 86.1305 625.814 83.0615 627.639 80.361C633.521 71.7229 643.84 71.6477 649.806 80.2256C652.668 84.6758 654.424 89.861 654.903 95.2745C655.275 97.9231 655.316 100.707 655.482 103.085ZM647.629 104.349C647.271 100.512 647.133 97.2609 646.637 94.0706C646.239 90.5926 644.971 87.3017 642.972 84.5596C640.493 81.4595 637.103 81.3241 634.706 84.5596C633.382 86.3337 632.398 88.3809 631.813 90.5792C629.588 99.1742 629.588 108.275 631.813 116.87C632.333 118.829 633.189 120.662 634.334 122.272C636.842 125.824 640.437 125.899 642.931 122.272C644.33 120.277 645.347 117.994 645.921 115.56C646.913 111.663 647.174 107.705 647.629 104.364V104.349Z"/>
</mask>
<path d="M655.482 103.085C655.248 109.104 654.889 114.733 653.043 120.105C652.102 123.066 650.632 125.792 648.717 128.126C647.438 129.754 645.843 131.049 644.048 131.917C642.253 132.786 640.302 133.205 638.34 133.146C636.377 133.087 634.451 132.551 632.702 131.575C630.954 130.6 629.426 129.211 628.231 127.509C626.068 124.609 624.541 121.206 623.767 117.562C621.632 108.316 621.632 98.636 623.767 89.3903C624.498 86.1305 625.814 83.0615 627.639 80.361C633.521 71.7229 643.84 71.6477 649.806 80.2256C652.668 84.6758 654.424 89.861 654.903 95.2745C655.275 97.9231 655.316 100.707 655.482 103.085ZM647.629 104.349C647.271 100.512 647.133 97.2609 646.637 94.0706C646.239 90.5926 644.971 87.3017 642.972 84.5596C640.493 81.4595 637.103 81.3241 634.706 84.5596C633.382 86.3337 632.398 88.3809 631.813 90.5792C629.588 99.1742 629.588 108.275 631.813 116.87C632.333 118.829 633.189 120.662 634.334 122.272C636.842 125.824 640.437 125.899 642.931 122.272C644.33 120.277 645.347 117.994 645.921 115.56C646.913 111.663 647.174 107.705 647.629 104.364V104.349Z" fill="#E5E5E5" stroke="black" stroke-width="6" mask="url(#path-4-inside-3)"/>
</g>
</g>
<g id="r">
<g id="Vector_4">
<mask id="path-5-inside-4" fill="white">
<path d="M261.38 103.281C261.38 95.9366 261.38 88.6078 261.38 81.2639C261.346 80.1835 261.387 79.1018 261.504 78.0284C261.794 75.9516 262.634 75.0186 264.563 75.0186C267.418 74.8192 270.283 74.9301 273.118 75.3497C277.873 76.3799 282.071 79.3984 284.817 83.7617C287.563 88.1249 288.64 93.4874 287.818 98.7057C287.225 103.764 285.05 108.442 281.66 111.949C279.208 114.492 279.18 114.883 280.723 118.149C282.266 121.415 283.699 124.319 285.145 127.419C285.516 128.156 285.803 128.939 286 129.752C286.076 130.016 286.1 130.294 286.071 130.569C286.041 130.844 285.959 131.109 285.829 131.347C285.698 131.585 285.524 131.789 285.316 131.947C285.108 132.106 284.871 132.214 284.622 132.265C283.327 132.807 281.898 132.825 280.592 132.318C279.286 131.81 278.189 130.809 277.499 129.496C275.915 126.486 274.51 123.326 272.953 120.286C272.388 119.202 271.947 117.502 270.39 118.089C269.109 118.555 269.467 120.105 269.44 121.264C269.44 123.672 269.44 126.08 269.44 128.472C269.302 131.482 268.296 132.475 265.486 132.506C262.675 132.536 261.67 131.588 261.422 128.593C261.339 127.645 261.422 126.667 261.422 125.703C261.367 118.194 261.38 110.73 261.38 103.281ZM269.495 95.5905C269.495 98.9615 269.412 102.332 269.495 105.688C269.495 107.765 270.501 108.457 272.333 108.141C272.871 108.034 273.394 107.852 273.89 107.6C275.826 106.686 277.477 105.176 278.642 103.255C279.806 101.333 280.433 99.0835 280.448 96.7794C280.737 91.5875 279.208 87.3287 275.006 84.4994C274.627 84.2576 274.231 84.0512 273.821 83.8824C270.638 82.4979 269.522 83.2353 269.44 86.8922C269.426 89.8117 269.495 92.7011 269.495 95.5905Z"/>
</mask>
<path d="M261.38 103.281C261.38 95.9366 261.38 88.6078 261.38 81.2639C261.346 80.1835 261.387 79.1018 261.504 78.0284C261.794 75.9516 262.634 75.0186 264.563 75.0186C267.418 74.8192 270.283 74.9301 273.118 75.3497C277.873 76.3799 282.071 79.3984 284.817 83.7617C287.563 88.1249 288.64 93.4874 287.818 98.7057C287.225 103.764 285.05 108.442 281.66 111.949C279.208 114.492 279.18 114.883 280.723 118.149C282.266 121.415 283.699 124.319 285.145 127.419C285.516 128.156 285.803 128.939 286 129.752C286.076 130.016 286.1 130.294 286.071 130.569C286.041 130.844 285.959 131.109 285.829 131.347C285.698 131.585 285.524 131.789 285.316 131.947C285.108 132.106 284.871 132.214 284.622 132.265C283.327 132.807 281.898 132.825 280.592 132.318C279.286 131.81 278.189 130.809 277.499 129.496C275.915 126.486 274.51 123.326 272.953 120.286C272.388 119.202 271.947 117.502 270.39 118.089C269.109 118.555 269.467 120.105 269.44 121.264C269.44 123.672 269.44 126.08 269.44 128.472C269.302 131.482 268.296 132.475 265.486 132.506C262.675 132.536 261.67 131.588 261.422 128.593C261.339 127.645 261.422 126.667 261.422 125.703C261.367 118.194 261.38 110.73 261.38 103.281ZM269.495 95.5905C269.495 98.9615 269.412 102.332 269.495 105.688C269.495 107.765 270.501 108.457 272.333 108.141C272.871 108.034 273.394 107.852 273.89 107.6C275.826 106.686 277.477 105.176 278.642 103.255C279.806 101.333 280.433 99.0835 280.448 96.7794C280.737 91.5875 279.208 87.3287 275.006 84.4994C274.627 84.2576 274.231 84.0512 273.821 83.8824C270.638 82.4979 269.522 83.2353 269.44 86.8922C269.426 89.8117 269.495 92.7011 269.495 95.5905Z" fill="#E5E5E5" stroke="black" stroke-width="6" mask="url(#path-5-inside-4)"/>
</g>
</g>
<g id="r2">
<g id="Vector_5">
<mask id="path-6-inside-5" fill="white">
<path d="M525.676 103.687V81.7003C525.676 80.7372 525.676 79.7741 525.676 78.8109C525.855 75.8011 526.585 74.9734 529.327 74.9132C531.744 74.7727 534.167 74.8431 536.574 75.1239C540.424 75.6913 543.995 77.6296 546.735 80.6386C549.475 83.6476 551.23 87.5593 551.728 91.7681C552.761 99.4731 551.094 106.305 545.776 111.843C543.352 114.372 543.297 114.853 544.812 118.059C546.328 121.264 548.132 124.831 549.662 128.292C550.888 131.091 550.144 132.235 547.264 132.46C546.061 132.669 544.829 132.437 543.76 131.8C542.69 131.163 541.844 130.157 541.354 128.939C540.362 126.667 539.205 124.424 538.117 122.242C537.703 121.399 537.317 120.527 536.835 119.729C536.353 118.931 535.83 117.502 534.672 118.028C534.121 118.284 533.735 119.533 533.653 120.406C533.474 122.543 533.515 124.725 533.46 126.877C533.46 127.84 533.46 128.804 533.322 129.767C533.283 130.436 533.019 131.066 532.583 131.538C532.146 132.009 531.566 132.289 530.953 132.325C530.078 132.43 529.196 132.43 528.321 132.325C527.649 132.333 527 132.052 526.515 131.542C526.031 131.033 525.749 130.336 525.731 129.601C525.628 128.526 525.587 127.446 525.607 126.366V103.642L525.676 103.687ZM544.867 95.3347C544.743 92.3701 543.78 89.5206 542.112 87.1781C540.662 85.1767 538.596 83.8184 536.298 83.3557C536.035 83.2478 535.753 83.2099 535.474 83.2452C535.195 83.2806 534.928 83.3881 534.695 83.5588C534.462 83.7295 534.27 83.9585 534.134 84.2268C533.998 84.4951 533.923 84.795 533.915 85.1014C533.744 86.0432 533.656 87.0007 533.653 87.9607C533.589 92.0339 533.552 96.1172 533.543 100.211C533.526 102.009 533.6 103.808 533.763 105.598C533.997 107.991 535.031 108.728 537.138 108.081C537.875 107.838 538.58 107.489 539.232 107.043C543.283 104.364 544.619 100.256 544.867 95.3347Z"/>
</mask>
<path d="M525.676 103.687V81.7003C525.676 80.7372 525.676 79.7741 525.676 78.8109C525.855 75.8011 526.585 74.9734 529.327 74.9132C531.744 74.7727 534.167 74.8431 536.574 75.1239C540.424 75.6913 543.995 77.6296 546.735 80.6386C549.475 83.6476 551.23 87.5593 551.728 91.7681C552.761 99.4731 551.094 106.305 545.776 111.843C543.352 114.372 543.297 114.853 544.812 118.059C546.328 121.264 548.132 124.831 549.662 128.292C550.888 131.091 550.144 132.235 547.264 132.46C546.061 132.669 544.829 132.437 543.76 131.8C542.69 131.163 541.844 130.157 541.354 128.939C540.362 126.667 539.205 124.424 538.117 122.242C537.703 121.399 537.317 120.527 536.835 119.729C536.353 118.931 535.83 117.502 534.672 118.028C534.121 118.284 533.735 119.533 533.653 120.406C533.474 122.543 533.515 124.725 533.46 126.877C533.46 127.84 533.46 128.804 533.322 129.767C533.283 130.436 533.019 131.066 532.583 131.538C532.146 132.009 531.566 132.289 530.953 132.325C530.078 132.43 529.196 132.43 528.321 132.325C527.649 132.333 527 132.052 526.515 131.542C526.031 131.033 525.749 130.336 525.731 129.601C525.628 128.526 525.587 127.446 525.607 126.366V103.642L525.676 103.687ZM544.867 95.3347C544.743 92.3701 543.78 89.5206 542.112 87.1781C540.662 85.1767 538.596 83.8184 536.298 83.3557C536.035 83.2478 535.753 83.2099 535.474 83.2452C535.195 83.2806 534.928 83.3881 534.695 83.5588C534.462 83.7295 534.27 83.9585 534.134 84.2268C533.998 84.4951 533.923 84.795 533.915 85.1014C533.744 86.0432 533.656 87.0007 533.653 87.9607C533.589 92.0339 533.552 96.1172 533.543 100.211C533.526 102.009 533.6 103.808 533.763 105.598C533.997 107.991 535.031 108.728 537.138 108.081C537.875 107.838 538.58 107.489 539.232 107.043C543.283 104.364 544.619 100.256 544.867 95.3347Z" fill="#E5E5E5" stroke="black" stroke-width="6" mask="url(#path-6-inside-5)"/>
</g>
</g>
<g id="u">
<g id="Vector_6">
<mask id="path-7-inside-6" fill="white">
<path d="M439.86 96.2677C439.86 91.1059 439.86 85.9291 439.86 80.7673C439.834 79.8025 439.871 78.837 439.97 77.8779C440.041 77.1547 440.332 76.4784 440.797 75.9573C441.261 75.4362 441.873 75.1004 442.533 75.0036C446.073 74.221 447.906 75.6206 447.933 79.5182C448.002 90.0525 448.043 100.677 447.864 111.256C447.693 114.375 447.231 117.466 446.487 120.481C445.825 123.662 444.398 126.592 442.353 128.969C441.173 130.364 439.733 131.466 438.131 132.203C436.529 132.94 434.8 133.294 433.062 133.241C431.324 133.188 429.617 132.73 428.054 131.897C426.492 131.064 425.11 129.876 424.003 128.412C421.527 125 419.963 120.906 419.484 116.584C419.113 114.096 418.919 111.58 418.905 109.059C418.809 100.03 418.822 91.0006 418.809 81.9712C418.809 81.0081 418.809 80.045 418.878 79.0969C419.236 75.3497 421.84 73.7244 425.008 75.1841C425.524 75.4087 425.97 75.7906 426.292 76.2842C426.615 76.7779 426.8 77.3625 426.827 77.9682C426.937 79.1721 426.951 80.376 426.951 81.5799C426.951 91.0758 426.951 100.572 426.951 110.068C426.987 112.468 427.218 114.86 427.64 117.216C427.907 118.629 428.401 119.979 429.1 121.204C431.373 125.327 435.534 125.267 437.821 121.098C439.206 118.336 439.886 115.217 439.791 112.069C439.791 106.772 439.791 101.535 439.791 96.1925L439.86 96.2677Z"/>
</mask>
<path d="M439.86 96.2677C439.86 91.1059 439.86 85.9291 439.86 80.7673C439.834 79.8025 439.871 78.837 439.97 77.8779C440.041 77.1547 440.332 76.4784 440.797 75.9573C441.261 75.4362 441.873 75.1004 442.533 75.0036C446.073 74.221 447.906 75.6206 447.933 79.5182C448.002 90.0525 448.043 100.677 447.864 111.256C447.693 114.375 447.231 117.466 446.487 120.481C445.825 123.662 444.398 126.592 442.353 128.969C441.173 130.364 439.733 131.466 438.131 132.203C436.529 132.94 434.8 133.294 433.062 133.241C431.324 133.188 429.617 132.73 428.054 131.897C426.492 131.064 425.11 129.876 424.003 128.412C421.527 125 419.963 120.906 419.484 116.584C419.113 114.096 418.919 111.58 418.905 109.059C418.809 100.03 418.822 91.0006 418.809 81.9712C418.809 81.0081 418.809 80.045 418.878 79.0969C419.236 75.3497 421.84 73.7244 425.008 75.1841C425.524 75.4087 425.97 75.7906 426.292 76.2842C426.615 76.7779 426.8 77.3625 426.827 77.9682C426.937 79.1721 426.951 80.376 426.951 81.5799C426.951 91.0758 426.951 100.572 426.951 110.068C426.987 112.468 427.218 114.86 427.64 117.216C427.907 118.629 428.401 119.979 429.1 121.204C431.373 125.327 435.534 125.267 437.821 121.098C439.206 118.336 439.886 115.217 439.791 112.069C439.791 106.772 439.791 101.535 439.791 96.1925L439.86 96.2677Z" fill="#E5E5E5" stroke="black" stroke-width="6" mask="url(#path-7-inside-6)"/>
</g>
</g>
<g id="a">
<g id="Vector_7">
<mask id="path-8-inside-7" fill="white">
<path d="M230.079 132.4C229.176 132.514 228.265 132.274 227.508 131.723C226.751 131.171 226.198 130.345 225.946 129.39C225.753 128.834 225.56 128.262 225.354 127.705C225.13 126.891 224.658 126.184 224.017 125.703C223.376 125.221 222.603 124.993 221.827 125.056C219.512 125.056 217.216 125.056 214.938 125.056C214.162 124.992 213.39 125.231 212.76 125.73C212.129 126.228 211.681 126.955 211.494 127.78C211.315 128.352 211.164 128.939 210.943 129.481C210.654 130.125 210.251 130.701 209.758 131.175C209.264 131.648 208.689 132.01 208.066 132.24C207.444 132.469 206.786 132.561 206.13 132.512C205.475 132.462 204.835 132.27 204.248 131.949C203.803 131.697 203.45 131.286 203.247 130.786C203.044 130.285 203.003 129.724 203.132 129.195C203.352 127.901 203.641 126.606 203.972 125.342C207.848 110.554 211.738 95.7661 215.641 80.978C215.912 79.8138 216.305 78.6877 216.812 77.622C217.611 76.1172 218.782 76.1172 219.568 77.622C219.984 78.4671 220.312 79.3606 220.546 80.2857C224.853 95.9366 229.156 111.593 233.455 127.253C233.532 127.48 233.596 127.711 233.647 127.946C234.323 131.151 233.427 132.385 230.079 132.4ZM218.259 116.9C221.014 116.9 221.937 116.253 221.496 114.221C220.828 111.439 220.028 108.696 219.099 106.004C219.019 105.792 218.891 105.604 218.728 105.46C218.564 105.315 218.369 105.218 218.162 105.177C217.845 105.177 217.405 105.688 217.281 106.08C216.578 108.352 215.903 110.594 215.338 112.957C214.649 116.042 215.338 116.87 218.259 116.9Z"/>
</mask>
<path d="M230.079 132.4C229.176 132.514 228.265 132.274 227.508 131.723C226.751 131.171 226.198 130.345 225.946 129.39C225.753 128.834 225.56 128.262 225.354 127.705C225.13 126.891 224.658 126.184 224.017 125.703C223.376 125.221 222.603 124.993 221.827 125.056C219.512 125.056 217.216 125.056 214.938 125.056C214.162 124.992 213.39 125.231 212.76 125.73C212.129 126.228 211.681 126.955 211.494 127.78C211.315 128.352 211.164 128.939 210.943 129.481C210.654 130.125 210.251 130.701 209.758 131.175C209.264 131.648 208.689 132.01 208.066 132.24C207.444 132.469 206.786 132.561 206.13 132.512C205.475 132.462 204.835 132.27 204.248 131.949C203.803 131.697 203.45 131.286 203.247 130.786C203.044 130.285 203.003 129.724 203.132 129.195C203.352 127.901 203.641 126.606 203.972 125.342C207.848 110.554 211.738 95.7661 215.641 80.978C215.912 79.8138 216.305 78.6877 216.812 77.622C217.611 76.1172 218.782 76.1172 219.568 77.622C219.984 78.4671 220.312 79.3606 220.546 80.2857C224.853 95.9366 229.156 111.593 233.455 127.253C233.532 127.48 233.596 127.711 233.647 127.946C234.323 131.151 233.427 132.385 230.079 132.4ZM218.259 116.9C221.014 116.9 221.937 116.253 221.496 114.221C220.828 111.439 220.028 108.696 219.099 106.004C219.019 105.792 218.891 105.604 218.728 105.46C218.564 105.315 218.369 105.218 218.162 105.177C217.845 105.177 217.405 105.688 217.281 106.08C216.578 108.352 215.903 110.594 215.338 112.957C214.649 116.042 215.338 116.87 218.259 116.9Z" fill="#E5E5E5" stroke="black" stroke-width="6" mask="url(#path-8-inside-7)"/>
</g>
</g>
<g id="e">
<g id="Vector_8">
<mask id="path-9-inside-8" fill="white">
<path d="M0.184454 103.642C0.184454 96.1172 0.184454 88.7282 0.184454 81.2789C0.149784 80.1935 0.191241 79.1068 0.308451 78.0283C0.611543 75.9215 1.38305 75.0186 3.35314 74.9433C8.51947 74.8229 13.6996 74.8079 18.8659 74.9433C21.1253 74.9433 22.1999 76.5536 22.1035 78.9915C22.1337 79.4455 22.0782 79.9015 21.9405 80.3312C21.8028 80.7609 21.5858 81.1551 21.3029 81.4894C21.0201 81.8238 20.6774 82.0912 20.2961 82.275C19.9149 82.4588 19.5031 82.5551 19.0863 82.5581C17.7087 82.7086 16.2207 82.5581 14.7879 82.6484C13.5788 82.6256 12.3695 82.6708 11.1646 82.7838C9.12565 83.0697 8.40926 83.7921 8.40926 86.0193C8.31741 91.0356 8.31741 96.0871 8.40926 101.174C8.40926 103.371 9.26342 104.183 11.2473 104.409C12.4459 104.56 13.672 104.409 14.8844 104.56C15.7325 104.672 16.5148 105.116 17.087 105.809C17.6592 106.502 17.9827 107.398 17.9978 108.331C18.0129 109.264 17.7186 110.171 17.1692 110.886C16.6198 111.601 15.8524 112.074 15.0084 112.22C13.6307 112.37 12.3494 112.22 11.0544 112.43C9.22209 112.701 8.53325 113.469 8.40926 115.44C8.29904 117.359 8.29904 119.284 8.40926 121.204C8.51947 123.416 9.18076 124.214 11.1646 124.499C12.0381 124.607 12.9174 124.648 13.796 124.62C15.4492 124.62 17.1025 124.62 18.7557 124.695C19.2261 124.654 19.6991 124.728 20.1394 124.914C20.5798 125.1 20.9762 125.391 21.2992 125.767C21.6221 126.143 21.8634 126.594 22.005 127.085C22.1467 127.577 22.185 128.098 22.1172 128.608C22.1799 129.092 22.1428 129.585 22.0085 130.052C21.8742 130.518 21.6462 130.946 21.3412 131.303C21.0361 131.661 20.6617 131.94 20.2454 132.119C19.829 132.298 19.3813 132.374 18.9348 132.34C13.7685 132.46 8.58836 132.445 3.40825 132.34C1.46571 132.34 0.652864 131.362 0.36355 129.255C0.234615 128.183 0.188531 127.1 0.225783 126.019C0.170675 118.57 0.184454 111.106 0.184454 103.642Z"/>
</mask>
<path d="M0.184454 103.642C0.184454 96.1172 0.184454 88.7282 0.184454 81.2789C0.149784 80.1935 0.191241 79.1068 0.308451 78.0283C0.611543 75.9215 1.38305 75.0186 3.35314 74.9433C8.51947 74.8229 13.6996 74.8079 18.8659 74.9433C21.1253 74.9433 22.1999 76.5536 22.1035 78.9915C22.1337 79.4455 22.0782 79.9015 21.9405 80.3312C21.8028 80.7609 21.5858 81.1551 21.3029 81.4894C21.0201 81.8238 20.6774 82.0912 20.2961 82.275C19.9149 82.4588 19.5031 82.5551 19.0863 82.5581C17.7087 82.7086 16.2207 82.5581 14.7879 82.6484C13.5788 82.6256 12.3695 82.6708 11.1646 82.7838C9.12565 83.0697 8.40926 83.7921 8.40926 86.0193C8.31741 91.0356 8.31741 96.0871 8.40926 101.174C8.40926 103.371 9.26342 104.183 11.2473 104.409C12.4459 104.56 13.672 104.409 14.8844 104.56C15.7325 104.672 16.5148 105.116 17.087 105.809C17.6592 106.502 17.9827 107.398 17.9978 108.331C18.0129 109.264 17.7186 110.171 17.1692 110.886C16.6198 111.601 15.8524 112.074 15.0084 112.22C13.6307 112.37 12.3494 112.22 11.0544 112.43C9.22209 112.701 8.53325 113.469 8.40926 115.44C8.29904 117.359 8.29904 119.284 8.40926 121.204C8.51947 123.416 9.18076 124.214 11.1646 124.499C12.0381 124.607 12.9174 124.648 13.796 124.62C15.4492 124.62 17.1025 124.62 18.7557 124.695C19.2261 124.654 19.6991 124.728 20.1394 124.914C20.5798 125.1 20.9762 125.391 21.2992 125.767C21.6221 126.143 21.8634 126.594 22.005 127.085C22.1467 127.577 22.185 128.098 22.1172 128.608C22.1799 129.092 22.1428 129.585 22.0085 130.052C21.8742 130.518 21.6462 130.946 21.3412 131.303C21.0361 131.661 20.6617 131.94 20.2454 132.119C19.829 132.298 19.3813 132.374 18.9348 132.34C13.7685 132.46 8.58836 132.445 3.40825 132.34C1.46571 132.34 0.652864 131.362 0.36355 129.255C0.234615 128.183 0.188531 127.1 0.225783 126.019C0.170675 118.57 0.184454 111.106 0.184454 103.642Z" fill="#E5E5E5" stroke="black" stroke-width="6" mask="url(#path-9-inside-8)"/>
</g>
</g>
<g id="e_2">
<g id="Vector_9">
<mask id="path-10-inside-9" fill="white">
<path d="M475.542 103.672V82.7236C475.542 81.8959 475.542 81.0532 475.542 80.2105C475.611 75.6055 476.189 74.9132 480.295 74.853C484.401 74.7929 488.671 74.853 492.86 74.853C493.3 74.853 493.741 74.853 494.237 74.853C494.683 74.8348 495.127 74.9219 495.539 75.1084C495.951 75.2949 496.322 75.5763 496.625 75.9335C496.929 76.2906 497.158 76.7151 497.297 77.1779C497.437 77.6408 497.483 78.1311 497.433 78.6153C497.494 79.0959 497.46 79.585 497.335 80.0504C497.21 80.5158 496.996 80.9469 496.706 81.3153C496.417 81.6836 496.06 81.9808 495.658 82.1873C495.256 82.3937 494.819 82.5047 494.375 82.513C493.5 82.5907 492.621 82.6158 491.744 82.5882C490.201 82.5882 488.644 82.5882 487.115 82.5882C484.456 82.7989 483.781 83.5062 483.739 86.3504C483.657 91.1661 483.657 95.9767 483.739 100.782C483.739 103.401 484.525 104.093 486.949 104.334C487.5 104.334 488.051 104.334 488.602 104.334C492.198 104.454 493.232 105.342 493.19 108.337C493.149 111.332 492.212 112.009 488.768 112.129C487.999 112.124 487.231 112.165 486.467 112.25C484.442 112.581 483.863 113.243 483.712 115.56C483.629 117.366 483.615 119.172 483.712 120.978C483.836 123.431 484.442 124.108 486.687 124.424C487.567 124.514 488.45 124.545 489.333 124.515C490.876 124.515 492.419 124.515 493.962 124.59C496.373 124.74 497.392 125.944 497.378 128.412C497.365 130.88 496.386 132.205 493.948 132.25C489.002 132.37 484.042 132.355 479.083 132.25C476.603 132.25 475.749 131.196 475.638 128.457C475.528 125.718 475.638 122.694 475.638 119.804L475.542 103.672Z"/>
</mask>
<path d="M475.542 103.672V82.7236C475.542 81.8959 475.542 81.0532 475.542 80.2105C475.611 75.6055 476.189 74.9132 480.295 74.853C484.401 74.7929 488.671 74.853 492.86 74.853C493.3 74.853 493.741 74.853 494.237 74.853C494.683 74.8348 495.127 74.9219 495.539 75.1084C495.951 75.2949 496.322 75.5763 496.625 75.9335C496.929 76.2906 497.158 76.7151 497.297 77.1779C497.437 77.6408 497.483 78.1311 497.433 78.6153C497.494 79.0959 497.46 79.585 497.335 80.0504C497.21 80.5158 496.996 80.9469 496.706 81.3153C496.417 81.6836 496.06 81.9808 495.658 82.1873C495.256 82.3937 494.819 82.5047 494.375 82.513C493.5 82.5907 492.621 82.6158 491.744 82.5882C490.201 82.5882 488.644 82.5882 487.115 82.5882C484.456 82.7989 483.781 83.5062 483.739 86.3504C483.657 91.1661 483.657 95.9767 483.739 100.782C483.739 103.401 484.525 104.093 486.949 104.334C487.5 104.334 488.051 104.334 488.602 104.334C492.198 104.454 493.232 105.342 493.19 108.337C493.149 111.332 492.212 112.009 488.768 112.129C487.999 112.124 487.231 112.165 486.467 112.25C484.442 112.581 483.863 113.243 483.712 115.56C483.629 117.366 483.615 119.172 483.712 120.978C483.836 123.431 484.442 124.108 486.687 124.424C487.567 124.514 488.45 124.545 489.333 124.515C490.876 124.515 492.419 124.515 493.962 124.59C496.373 124.74 497.392 125.944 497.378 128.412C497.365 130.88 496.386 132.205 493.948 132.25C489.002 132.37 484.042 132.355 479.083 132.25C476.603 132.25 475.749 131.196 475.638 128.457C475.528 125.718 475.638 122.694 475.638 119.804L475.542 103.672Z" fill="#E5E5E5" stroke="black" stroke-width="6" mask="url(#path-10-inside-9)"/>
</g>
</g>
<g id="t">
<g id="Vector_10">
<mask id="path-11-inside-10" fill="white">
<path d="M583.856 107.284V88.8636C583.904 87.9012 583.904 86.9366 583.856 85.9742C583.622 83.3858 582.933 82.6936 580.508 82.513C579.971 82.513 579.406 82.513 578.855 82.513C576.458 82.2421 575.479 81.0833 575.493 78.5852C575.507 76.0871 576.444 74.7628 578.896 74.7026C584.848 74.5671 590.799 74.5521 596.806 74.7026C599.644 74.7778 600.705 76.5536 600.278 79.5183C600.213 80.1806 599.962 80.8048 599.56 81.3058C599.158 81.8068 598.625 82.16 598.032 82.3174C597.602 82.4181 597.164 82.4735 596.723 82.4829C592.177 82.9193 592.053 83.0247 592.039 88.1262C592.039 100.165 592.039 112.205 592.039 124.244C592.07 125.929 591.982 127.614 591.778 129.285C591.447 131.618 590.221 132.415 587.644 132.295C585.289 132.159 584.269 131.317 584.09 128.969C583.911 126.621 584.007 124.65 583.994 122.483L583.856 107.284Z"/>
</mask>
<path d="M583.856 107.284V88.8636C583.904 87.9012 583.904 86.9366 583.856 85.9742C583.622 83.3858 582.933 82.6936 580.508 82.513C579.971 82.513 579.406 82.513 578.855 82.513C576.458 82.2421 575.479 81.0833 575.493 78.5852C575.507 76.0871 576.444 74.7628 578.896 74.7026C584.848 74.5671 590.799 74.5521 596.806 74.7026C599.644 74.7778 600.705 76.5536 600.278 79.5183C600.213 80.1806 599.962 80.8048 599.56 81.3058C599.158 81.8068 598.625 82.16 598.032 82.3174C597.602 82.4181 597.164 82.4735 596.723 82.4829C592.177 82.9193 592.053 83.0247 592.039 88.1262C592.039 100.165 592.039 112.205 592.039 124.244C592.07 125.929 591.982 127.614 591.778 129.285C591.447 131.618 590.221 132.415 587.644 132.295C585.289 132.159 584.269 131.317 584.09 128.969C583.911 126.621 584.007 124.65 583.994 122.483L583.856 107.284Z" fill="#E5E5E5" stroke="black" stroke-width="6" mask="url(#path-11-inside-10)"/>
</g>
</g>
<g id="l">
<g id="Vector_11">
<mask id="path-12-inside-11" fill="white">
<path d="M49.9878 103.627C49.9878 96.659 49.9878 89.6763 49.9878 82.7086C49.9831 81.0235 50.0751 79.3397 50.2634 77.6672C50.5251 75.6958 51.2829 75.0337 53.1014 74.823C53.5599 74.7821 54.0206 74.7821 54.4791 74.823C57.0692 74.9283 57.8131 75.6657 58.0198 78.4347C58.1162 79.6386 58.0198 80.8425 58.0198 82.0465V117.758C57.9876 118.837 58.0106 119.917 58.0886 120.993C58.3366 123.491 58.9153 124.123 61.1747 124.289C62.5524 124.379 63.8061 124.289 65.1286 124.289C66.2282 124.276 67.3275 124.331 68.4213 124.454C71.1767 124.831 72.0722 126.17 71.7966 129.059C71.8095 129.455 71.751 129.849 71.6243 130.219C71.4976 130.59 71.3053 130.93 71.0583 131.219C70.8114 131.508 70.5146 131.742 70.1851 131.906C69.8555 132.069 69.4996 132.161 69.1377 132.174C68.6827 132.258 68.2213 132.294 67.76 132.28C63.255 132.28 58.7362 132.385 54.2311 132.28C50.8971 132.205 50.0981 131.362 50.0981 127.765C50.0981 119.699 50.0981 111.648 50.0981 103.597L49.9878 103.627Z"/>
</mask>
<path d="M49.9878 103.627C49.9878 96.659 49.9878 89.6763 49.9878 82.7086C49.9831 81.0235 50.0751 79.3397 50.2634 77.6672C50.5251 75.6958 51.2829 75.0337 53.1014 74.823C53.5599 74.7821 54.0206 74.7821 54.4791 74.823C57.0692 74.9283 57.8131 75.6657 58.0198 78.4347C58.1162 79.6386 58.0198 80.8425 58.0198 82.0465V117.758C57.9876 118.837 58.0106 119.917 58.0886 120.993C58.3366 123.491 58.9153 124.123 61.1747 124.289C62.5524 124.379 63.8061 124.289 65.1286 124.289C66.2282 124.276 67.3275 124.331 68.4213 124.454C71.1767 124.831 72.0722 126.17 71.7966 129.059C71.8095 129.455 71.751 129.849 71.6243 130.219C71.4976 130.59 71.3053 130.93 71.0583 131.219C70.8114 131.508 70.5146 131.742 70.1851 131.906C69.8555 132.069 69.4996 132.161 69.1377 132.174C68.6827 132.258 68.2213 132.294 67.76 132.28C63.255 132.28 58.7362 132.385 54.2311 132.28C50.8971 132.205 50.0981 131.362 50.0981 127.765C50.0981 119.699 50.0981 111.648 50.0981 103.597L49.9878 103.627Z" fill="#E5E5E5" stroke="black" stroke-width="6" mask="url(#path-12-inside-11)"/>
</g>
</g>
<g id="l9">
<g id="l_2">
<g id="Vector_12">
<mask id="path-13-inside-12" fill="white">
<path d="M422.129 0.70697V21.0381L423.934 21.9259H418.023L419.759 21.0681V3.00946L417.748 2.24197L421.798 0.737074L422.129 0.70697Z"/>
</mask>
<path d="M422.129 0.70697V21.0381L423.934 21.9259H418.023L419.759 21.0681V3.00946L417.748 2.24197L421.798 0.737074L422.129 0.70697Z" fill="#E5E5E5" stroke="black" stroke-width="6" mask="url(#path-13-inside-12)"/>
</g>
</g>
</g>
<g id="l2">
<g id="Vector_13">
<mask id="path-14-inside-13" fill="white">
<path d="M436.677 0.70697C436.677 6.83189 436.677 12.9568 436.677 19.0817C436.85 20.0898 437.171 21.0605 437.628 21.9561H432.475L434.404 21.0983V3.03956L432.296 2.31722L436.333 0.812324L436.677 0.70697Z"/>
</mask>
<path d="M436.677 0.70697C436.677 6.83189 436.677 12.9568 436.677 19.0817C436.85 20.0898 437.171 21.0605 437.628 21.9561H432.475L434.404 21.0983V3.03956L432.296 2.31722L436.333 0.812324L436.677 0.70697Z" fill="#E5E5E5" stroke="black" stroke-width="6" mask="url(#path-14-inside-13)"/>
</g>
</g>
<g id="lores">
<g id="Vector_14">
<mask id="path-15-inside-14" fill="white">
<path d="M268.048 0.70697V21.0983L269.757 21.7153V21.941H264.149L265.858 21.0531V2.99442L263.695 2.28712L267.745 0.782219L268.048 0.70697Z"/>
</mask>
<path d="M268.048 0.70697V21.0983L269.757 21.7153V21.941H264.149L265.858 21.0531V2.99442L263.695 2.28712L267.745 0.782219L268.048 0.70697Z" fill="#E5E5E5" stroke="black" stroke-width="6" mask="url(#path-15-inside-14)"/>
</g>
</g>
<g id="w">
<g id="Group 1">
<g id="Vector_15">
<mask id="path-16-inside-15" fill="white">
<path d="M389.932 17.5016C391.117 12.7311 392.288 7.96056 393.501 3.0546L391.296 2.30215V2.03128H396.711C394.575 2.85897 394.382 4.63474 393.955 6.22993C392.646 11.1359 391.379 16.0418 390.043 20.9327C389.717 21.6378 389.304 22.291 388.816 22.8741L383.306 6.1246C382.755 7.5392 382.369 8.44214 382.038 9.37518C380.661 13.2427 379.283 17.1103 377.905 20.9628C377.607 21.5123 377.246 22.018 376.831 22.4677L376.39 22.2119C375.012 15.8161 373.634 9.40526 372.257 3.22014L370.535 2.31721V2.03128H376.651V2.24196L374.571 3.02452L377.327 17.2909L377.809 17.3963C379.71 12.1592 381.602 6.9272 383.485 1.7002H384.036L389.244 17.5768L389.932 17.5016Z"/>
</mask>
<path d="M389.932 17.5016C391.117 12.7311 392.288 7.96056 393.501 3.0546L391.296 2.30215V2.03128H396.711C394.575 2.85897 394.382 4.63474 393.955 6.22993C392.646 11.1359 391.379 16.0418 390.043 20.9327C389.717 21.6378 389.304 22.291 388.816 22.8741L383.306 6.1246C382.755 7.5392 382.369 8.44214 382.038 9.37518C380.661 13.2427 379.283 17.1103 377.905 20.9628C377.607 21.5123 377.246 22.018 376.831 22.4677L376.39 22.2119C375.012 15.8161 373.634 9.40526 372.257 3.22014L370.535 2.31721V2.03128H376.651V2.24196L374.571 3.02452L377.327 17.2909L377.809 17.3963C379.71 12.1592 381.602 6.9272 383.485 1.7002H384.036L389.244 17.5768L389.932 17.5016Z" fill="#E5E5E5" stroke="black" stroke-width="6" mask="url(#path-16-inside-15)"/>
</g>
</g>
</g>
<g id="ms">
<g id="Vector_16">
<mask id="path-17-inside-16" fill="white">
<path d="M490.559 21.7003L492.005 21.1886C492.005 18.3142 492.129 15.3947 492.005 12.4903C491.909 10.8048 490.696 10.0524 489.25 10.0825C488.552 10.0773 487.876 10.3466 487.344 10.8412C486.813 11.3357 486.463 12.0226 486.357 12.7762C486.247 15.5151 486.357 18.2691 486.357 21.0381L488.148 21.8959H482.21C484.029 21.4444 484.18 20.391 484.166 19.0065C484.166 16.2525 484.166 13.4986 484.166 10.6995L482.348 10.1276V9.76644L486.205 8.60767L486.439 10.4136C487.817 9.76645 489.195 8.62273 490.572 8.62273C491.95 8.62273 493.245 9.76644 494.582 10.3985V10.9704L496.042 9.6009C496.657 9.03273 497.407 8.66735 498.204 8.54743C499.002 8.42752 499.815 8.55802 500.547 8.9237C501.219 9.22296 501.787 9.74637 502.171 10.4193C502.554 11.0922 502.733 11.8802 502.682 12.6709C502.682 14.7627 502.682 16.8695 502.779 18.9764C502.779 19.6837 502.93 20.391 503.013 21.1434L504.928 21.8808H500.533C500.533 18.9914 500.657 16.1171 500.533 13.2729C500.499 12.7387 500.358 12.2192 500.12 11.7512C499.882 11.2831 499.553 10.8778 499.155 10.564C498.081 10.3009 496.96 10.3899 495.932 10.8199C495.673 10.9684 495.45 11.1825 495.282 11.4443C495.114 11.7062 495.006 12.008 494.967 12.3248C494.871 15.2443 494.967 18.1788 494.967 21.1284L496.428 21.6852V21.8959H491.027L490.559 21.7003Z"/>
</mask>
<path d="M490.559 21.7003L492.005 21.1886C492.005 18.3142 492.129 15.3947 492.005 12.4903C491.909 10.8048 490.696 10.0524 489.25 10.0825C488.552 10.0773 487.876 10.3466 487.344 10.8412C486.813 11.3357 486.463 12.0226 486.357 12.7762C486.247 15.5151 486.357 18.2691 486.357 21.0381L488.148 21.8959H482.21C484.029 21.4444 484.18 20.391 484.166 19.0065C484.166 16.2525 484.166 13.4986 484.166 10.6995L482.348 10.1276V9.76644L486.205 8.60767L486.439 10.4136C487.817 9.76645 489.195 8.62273 490.572 8.62273C491.95 8.62273 493.245 9.76644 494.582 10.3985V10.9704L496.042 9.6009C496.657 9.03273 497.407 8.66735 498.204 8.54743C499.002 8.42752 499.815 8.55802 500.547 8.9237C501.219 9.22296 501.787 9.74637 502.171 10.4193C502.554 11.0922 502.733 11.8802 502.682 12.6709C502.682 14.7627 502.682 16.8695 502.779 18.9764C502.779 19.6837 502.93 20.391 503.013 21.1434L504.928 21.8808H500.533C500.533 18.9914 500.657 16.1171 500.533 13.2729C500.499 12.7387 500.358 12.2192 500.12 11.7512C499.882 11.2831 499.553 10.8778 499.155 10.564C498.081 10.3009 496.96 10.3899 495.932 10.8199C495.673 10.9684 495.45 11.1825 495.282 11.4443C495.114 11.7062 495.006 12.008 494.967 12.3248C494.871 15.2443 494.967 18.1788 494.967 21.1284L496.428 21.6852V21.8959H491.027L490.559 21.7003Z" fill="#E5E5E5" stroke="black" stroke-width="6" mask="url(#path-17-inside-16)"/>
</g>
</g>
<g id="f">
<g id="Vector_17">
<mask id="path-18-inside-17" fill="white">
<path d="M246.928 3.19003V11.0606H252.549L253.335 8.84842H253.638V15.0185L253.362 15.1238L252.577 12.4602L246.915 12.114C246.915 14.9432 246.777 17.5166 247.011 20.0448C247.08 20.6919 248.306 21.2186 249.009 21.8056H242.244V21.5196L244.311 20.9779C244.745 15.0028 244.745 8.99956 244.311 3.02449L242.12 2.27205V1.97107H255.139L254.822 5.88378H254.382L253.693 3.09974L246.928 3.19003Z"/>
</mask>
<path d="M246.928 3.19003V11.0606H252.549L253.335 8.84842H253.638V15.0185L253.362 15.1238L252.577 12.4602L246.915 12.114C246.915 14.9432 246.777 17.5166 247.011 20.0448C247.08 20.6919 248.306 21.2186 249.009 21.8056H242.244V21.5196L244.311 20.9779C244.745 15.0028 244.745 8.99956 244.311 3.02449L242.12 2.27205V1.97107H255.139L254.822 5.88378H254.382L253.693 3.09974L246.928 3.19003Z" fill="#E5E5E5" stroke="black" stroke-width="6" mask="url(#path-18-inside-17)"/>
</g>
</g>
<g id="n">
<g id="Vector_18">
<mask id="path-19-inside-18" fill="white">
<path d="M207.609 10.6092L205.763 10.0975V9.75139L209.731 8.6528L209.924 11.1058C210.599 10.5189 211.108 10.1125 211.563 9.60089C212.201 8.96856 212.999 8.56243 213.853 8.43615C214.706 8.30987 215.575 8.46937 216.344 8.89359C217.06 9.22454 217.656 9.80606 218.038 10.5469C218.419 11.2877 218.565 12.1459 218.452 12.9869C218.452 15.3797 218.562 17.7875 218.631 20.1953C218.675 20.506 218.739 20.8128 218.824 21.1133L220.201 21.64V21.8357H216.344C216.344 18.9463 216.426 16.1472 216.344 13.3481C216.377 12.895 216.318 12.4395 216.171 12.0143C216.024 11.589 215.793 11.2044 215.494 10.8881C215.195 10.5718 214.836 10.3315 214.442 10.1844C214.049 10.0373 213.63 9.98711 213.216 10.0373C212.788 10.0232 212.361 10.103 211.961 10.272C211.562 10.441 211.197 10.6957 210.889 11.0211C210.581 11.3465 210.335 11.736 210.167 12.1667C209.999 12.5974 209.912 13.0605 209.91 13.5286C209.793 15.4478 209.793 17.3733 209.91 19.2924C210.106 20.1976 210.427 21.0651 210.861 21.8657H205.86L207.637 21.0531L207.609 10.6092Z"/>
</mask>
<path d="M207.609 10.6092L205.763 10.0975V9.75139L209.731 8.6528L209.924 11.1058C210.599 10.5189 211.108 10.1125 211.563 9.60089C212.201 8.96856 212.999 8.56243 213.853 8.43615C214.706 8.30987 215.575 8.46937 216.344 8.89359C217.06 9.22454 217.656 9.80606 218.038 10.5469C218.419 11.2877 218.565 12.1459 218.452 12.9869C218.452 15.3797 218.562 17.7875 218.631 20.1953C218.675 20.506 218.739 20.8128 218.824 21.1133L220.201 21.64V21.8357H216.344C216.344 18.9463 216.426 16.1472 216.344 13.3481C216.377 12.895 216.318 12.4395 216.171 12.0143C216.024 11.589 215.793 11.2044 215.494 10.8881C215.195 10.5718 214.836 10.3315 214.442 10.1844C214.049 10.0373 213.63 9.98711 213.216 10.0373C212.788 10.0232 212.361 10.103 211.961 10.272C211.562 10.441 211.197 10.6957 210.889 11.0211C210.581 11.3465 210.335 11.736 210.167 12.1667C209.999 12.5974 209.912 13.0605 209.91 13.5286C209.793 15.4478 209.793 17.3733 209.91 19.2924C210.106 20.1976 210.427 21.0651 210.861 21.8657H205.86L207.637 21.0531L207.609 10.6092Z" fill="#E5E5E5" stroke="black" stroke-width="6" mask="url(#path-19-inside-18)"/>
</g>
</g>
<g id="j">
<g id="Vector_19">
<mask id="path-20-inside-19" fill="white">
<path d="M129.232 27.6144V25.9591C132.126 26.0794 132.484 25.7484 132.511 22.6031C132.511 16.8244 132.511 11.0456 132.511 5.26676C132.466 4.50342 132.374 3.74427 132.236 2.99438L130.073 2.36233V2.03125H137.168V2.27204L135.115 3.03953C135.115 3.89732 134.95 4.77015 134.936 5.64299C134.844 10.88 134.757 16.112 134.674 21.339C134.743 24.0478 131.947 28.0358 129.232 27.6144Z"/>
</mask>
<path d="M129.232 27.6144V25.9591C132.126 26.0794 132.484 25.7484 132.511 22.6031C132.511 16.8244 132.511 11.0456 132.511 5.26676C132.466 4.50342 132.374 3.74427 132.236 2.99438L130.073 2.36233V2.03125H137.168V2.27204L135.115 3.03953C135.115 3.89732 134.95 4.77015 134.936 5.64299C134.844 10.88 134.757 16.112 134.674 21.339C134.743 24.0478 131.947 28.0358 129.232 27.6144Z" fill="#E5E5E5" stroke="black" stroke-width="6" mask="url(#path-20-inside-19)"/>
</g>
</g>
<g id="or">
<g id="Vector_20">
<mask id="path-21-inside-20" fill="white">
<path d="M278.698 15.5753C278.68 14.6244 278.841 13.6796 279.169 12.7986C279.497 11.9176 279.986 11.119 280.606 10.4514C281.226 9.78378 281.965 9.2613 282.776 8.91584C283.587 8.57038 284.454 8.40918 285.325 8.44209C286.139 8.41042 286.95 8.56248 287.708 8.88877C288.466 9.21506 289.154 9.70856 289.729 10.3385C290.304 10.9684 290.755 11.7211 291.052 12.5497C291.349 13.3782 291.486 14.2648 291.455 15.1539C291.467 16.1532 291.293 17.1446 290.946 18.0691C290.599 18.9936 290.084 19.8321 289.434 20.5344C288.783 21.2368 288.009 21.7887 287.159 22.1571C286.308 22.5254 285.399 22.7027 284.484 22.6784C281.15 22.6483 278.67 19.6235 278.698 15.5753ZM289.127 15.7408L289.32 15.6355C288.941 14.0913 288.453 12.5819 287.859 11.1208C287.518 10.423 286.975 9.86775 286.315 9.54126C285.654 9.21476 284.914 9.13521 284.209 9.31493C283.577 9.37401 282.976 9.63965 282.485 10.0772C281.993 10.5148 281.634 11.104 281.453 11.7679C281.045 13.1109 280.914 14.5357 281.068 15.9406C281.223 17.3455 281.66 18.6956 282.349 19.8943C282.711 20.5557 283.254 21.0758 283.902 21.381C284.55 21.6862 285.269 21.761 285.958 21.5949C286.666 21.4818 287.325 21.1316 287.843 20.5926C288.361 20.0535 288.714 19.3521 288.851 18.5851C289.001 17.6296 289.093 16.6644 289.127 15.6957V15.7408Z"/>
</mask>
<path d="M278.698 15.5753C278.68 14.6244 278.841 13.6796 279.169 12.7986C279.497 11.9176 279.986 11.119 280.606 10.4514C281.226 9.78378 281.965 9.2613 282.776 8.91584C283.587 8.57038 284.454 8.40918 285.325 8.44209C286.139 8.41042 286.95 8.56248 287.708 8.88877C288.466 9.21506 289.154 9.70856 289.729 10.3385C290.304 10.9684 290.755 11.7211 291.052 12.5497C291.349 13.3782 291.486 14.2648 291.455 15.1539C291.467 16.1532 291.293 17.1446 290.946 18.0691C290.599 18.9936 290.084 19.8321 289.434 20.5344C288.783 21.2368 288.009 21.7887 287.159 22.1571C286.308 22.5254 285.399 22.7027 284.484 22.6784C281.15 22.6483 278.67 19.6235 278.698 15.5753ZM289.127 15.7408L289.32 15.6355C288.941 14.0913 288.453 12.5819 287.859 11.1208C287.518 10.423 286.975 9.86775 286.315 9.54126C285.654 9.21476 284.914 9.13521 284.209 9.31493C283.577 9.37401 282.976 9.63965 282.485 10.0772C281.993 10.5148 281.634 11.104 281.453 11.7679C281.045 13.1109 280.914 14.5357 281.068 15.9406C281.223 17.3455 281.66 18.6956 282.349 19.8943C282.711 20.5557 283.254 21.0758 283.902 21.381C284.55 21.6862 285.269 21.761 285.958 21.5949C286.666 21.4818 287.325 21.1316 287.843 20.5926C288.361 20.0535 288.714 19.3521 288.851 18.5851C289.001 17.6296 289.093 16.6644 289.127 15.6957V15.7408Z" fill="#E5E5E5" stroke="black" stroke-width="6" mask="url(#path-21-inside-20)"/>
</g>
</g>
<g id="on">
<g id="Vector_21">
<mask id="path-22-inside-21" fill="white">
<path d="M197.318 15.2593C197.323 16.2548 197.142 17.2409 196.785 18.1572C196.429 19.0736 195.906 19.9008 195.247 20.5884C194.587 21.2759 193.807 21.8092 192.952 22.1557C192.098 22.5021 191.188 22.6544 190.278 22.6032C186.861 22.6032 184.574 19.5934 184.671 15.3797C184.657 14.429 184.824 13.4857 185.161 12.609C185.498 11.7323 185.997 10.9412 186.627 10.2854C187.257 9.6296 188.005 9.12326 188.823 8.79827C189.641 8.47327 190.511 8.33664 191.38 8.39694C192.194 8.37972 193.002 8.54843 193.752 8.89225C194.503 9.23608 195.179 9.74745 195.738 10.3935C196.297 11.0396 196.727 11.8062 196.999 12.6441C197.271 13.482 197.379 14.3728 197.318 15.2593ZM186.599 14.4165C186.991 16.1727 187.493 17.8973 188.101 19.5783C188.395 20.3052 188.899 20.9065 189.536 21.2899C190.174 21.6733 190.908 21.8174 191.628 21.7003C192.295 21.6648 192.935 21.4061 193.463 20.9591C193.99 20.5122 194.379 19.8988 194.576 19.2021C194.989 17.9222 195.148 16.5608 195.041 15.2088C194.934 13.8567 194.564 12.5451 193.956 11.3616C193.715 10.8005 193.352 10.312 192.899 9.93815C192.447 9.56429 191.918 9.31631 191.358 9.21559C190.798 9.11488 190.224 9.16445 189.685 9.36003C189.147 9.55562 188.66 9.89135 188.266 10.3383C187.528 11.5995 186.966 12.9741 186.599 14.4165Z"/>
</mask>
<path d="M197.318 15.2593C197.323 16.2548 197.142 17.2409 196.785 18.1572C196.429 19.0736 195.906 19.9008 195.247 20.5884C194.587 21.2759 193.807 21.8092 192.952 22.1557C192.098 22.5021 191.188 22.6544 190.278 22.6032C186.861 22.6032 184.574 19.5934 184.671 15.3797C184.657 14.429 184.824 13.4857 185.161 12.609C185.498 11.7323 185.997 10.9412 186.627 10.2854C187.257 9.6296 188.005 9.12326 188.823 8.79827C189.641 8.47327 190.511 8.33664 191.38 8.39694C192.194 8.37972 193.002 8.54843 193.752 8.89225C194.503 9.23608 195.179 9.74745 195.738 10.3935C196.297 11.0396 196.727 11.8062 196.999 12.6441C197.271 13.482 197.379 14.3728 197.318 15.2593ZM186.599 14.4165C186.991 16.1727 187.493 17.8973 188.101 19.5783C188.395 20.3052 188.899 20.9065 189.536 21.2899C190.174 21.6733 190.908 21.8174 191.628 21.7003C192.295 21.6648 192.935 21.4061 193.463 20.9591C193.99 20.5122 194.379 19.8988 194.576 19.2021C194.989 17.9222 195.148 16.5608 195.041 15.2088C194.934 13.8567 194.564 12.5451 193.956 11.3616C193.715 10.8005 193.352 10.312 192.899 9.93815C192.447 9.56429 191.918 9.31631 191.358 9.21559C190.798 9.11488 190.224 9.16445 189.685 9.36003C189.147 9.55562 188.66 9.89135 188.266 10.3383C187.528 11.5995 186.966 12.9741 186.599 14.4165Z" fill="#E5E5E5" stroke="black" stroke-width="6" mask="url(#path-22-inside-21)"/>
</g>
</g>
<g id="ar">
<g id="Vector_22">
<mask id="path-23-inside-22" fill="white">
<path d="M156.208 21.008L157.957 21.9259H154.169L153.921 19.7589C152.998 20.4361 152.199 21.0079 151.413 21.6099C150.884 22.0532 150.246 22.3131 149.58 22.356C148.915 22.3989 148.253 22.2229 147.68 21.8507C147.164 21.5424 146.752 21.0621 146.505 20.48C146.257 19.8979 146.186 19.2445 146.302 18.6152C146.289 17.8871 146.487 17.173 146.868 16.5755C147.249 15.978 147.794 15.5277 148.424 15.2894C150.187 14.6573 152.019 14.251 153.81 13.7845C153.924 13.4151 153.968 13.0247 153.941 12.6364C153.914 12.248 153.816 11.8695 153.653 11.5231C153.49 11.1768 153.265 10.8695 152.991 10.6195C152.718 10.3695 152.402 10.1818 152.061 10.0674C150.325 9.37513 148.961 10.0674 147.501 12.4902L147.335 10.0373C148.698 9.44299 150.103 8.97482 151.537 8.63773C152.108 8.50359 152.7 8.51606 153.266 8.67417C153.832 8.83229 154.357 9.13175 154.799 9.54895C155.241 9.96615 155.588 10.4897 155.814 11.0784C156.039 11.6672 156.136 12.305 156.097 12.9417C156.097 14.7325 156.097 16.5384 156.097 18.3443C156.084 19.187 156.166 20.09 156.208 21.008ZM153.934 14.4767C152.557 14.9131 151.275 15.2141 150.077 15.7258C149.741 15.8604 149.435 16.0693 149.177 16.3394C148.919 16.6096 148.715 16.9351 148.578 17.2956C148.441 17.656 148.374 18.0435 148.38 18.4338C148.387 18.8241 148.467 19.2086 148.617 19.5633C149.181 20.8424 150.545 21.1585 152.061 20.4211C154.403 19.2773 154.224 17.0802 153.934 14.4767Z"/>
</mask>
<path d="M156.208 21.008L157.957 21.9259H154.169L153.921 19.7589C152.998 20.4361 152.199 21.0079 151.413 21.6099C150.884 22.0532 150.246 22.3131 149.58 22.356C148.915 22.3989 148.253 22.2229 147.68 21.8507C147.164 21.5424 146.752 21.0621 146.505 20.48C146.257 19.8979 146.186 19.2445 146.302 18.6152C146.289 17.8871 146.487 17.173 146.868 16.5755C147.249 15.978 147.794 15.5277 148.424 15.2894C150.187 14.6573 152.019 14.251 153.81 13.7845C153.924 13.4151 153.968 13.0247 153.941 12.6364C153.914 12.248 153.816 11.8695 153.653 11.5231C153.49 11.1768 153.265 10.8695 152.991 10.6195C152.718 10.3695 152.402 10.1818 152.061 10.0674C150.325 9.37513 148.961 10.0674 147.501 12.4902L147.335 10.0373C148.698 9.44299 150.103 8.97482 151.537 8.63773C152.108 8.50359 152.7 8.51606 153.266 8.67417C153.832 8.83229 154.357 9.13175 154.799 9.54895C155.241 9.96615 155.588 10.4897 155.814 11.0784C156.039 11.6672 156.136 12.305 156.097 12.9417C156.097 14.7325 156.097 16.5384 156.097 18.3443C156.084 19.187 156.166 20.09 156.208 21.008ZM153.934 14.4767C152.557 14.9131 151.275 15.2141 150.077 15.7258C149.741 15.8604 149.435 16.0693 149.177 16.3394C148.919 16.6096 148.715 16.9351 148.578 17.2956C148.441 17.656 148.374 18.0435 148.38 18.4338C148.387 18.8241 148.467 19.2086 148.617 19.5633C149.181 20.8424 150.545 21.1585 152.061 20.4211C154.403 19.2773 154.224 17.0802 153.934 14.4767Z" fill="#E5E5E5" stroke="black" stroke-width="6" mask="url(#path-23-inside-22)"/>
</g>
</g>
<g id="13">
<g id="Vector_23">
<mask id="path-24-inside-23" fill="white">
<path d="M469.852 13.7092C470.026 12.9031 469.9 12.0545 469.503 11.3494C469.105 10.6442 468.468 10.1399 467.73 9.94702C466.036 9.40526 464.975 9.94703 463.377 12.3549L463.184 10.5038C463.906 9.78223 464.763 9.24032 465.695 8.91555C466.628 8.59078 467.613 8.49088 468.585 8.62273C469.053 8.64569 469.512 8.77036 469.936 8.98947C470.359 9.20857 470.739 9.51771 471.052 9.89882C471.365 10.2799 471.605 10.7254 471.759 11.2091C471.912 11.6928 471.976 12.2051 471.946 12.716C471.946 14.9433 471.863 17.2307 471.946 19.3978C472.112 20.2665 472.395 21.1034 472.786 21.8808H470.031L469.742 19.7288C468.833 20.406 468.075 20.9629 467.331 21.5498C466.794 22.0292 466.134 22.313 465.442 22.3616C464.75 22.4102 464.062 22.221 463.473 21.8206C462.965 21.4996 462.564 21.0097 462.329 20.4223C462.093 19.8349 462.036 19.1806 462.165 18.555C462.178 17.7943 462.414 17.0583 462.838 16.4545C463.262 15.8507 463.851 15.4108 464.52 15.1991C466.284 14.6573 468.047 14.2209 469.852 13.7092ZM469.742 14.4617C468.296 14.8684 466.874 15.3709 465.485 15.9666C464.939 16.3305 464.537 16.9044 464.358 17.5756C464.18 18.2467 464.238 18.9665 464.52 19.5934C464.777 20.1355 465.217 20.5471 465.747 20.7409C466.277 20.9348 466.855 20.8956 467.358 20.6318C469.701 19.9245 470.389 18.3142 469.742 14.4617Z"/>
</mask>
<path d="M469.852 13.7092C470.026 12.9031 469.9 12.0545 469.503 11.3494C469.105 10.6442 468.468 10.1399 467.73 9.94702C466.036 9.40526 464.975 9.94703 463.377 12.3549L463.184 10.5038C463.906 9.78223 464.763 9.24032 465.695 8.91555C466.628 8.59078 467.613 8.49088 468.585 8.62273C469.053 8.64569 469.512 8.77036 469.936 8.98947C470.359 9.20857 470.739 9.51771 471.052 9.89882C471.365 10.2799 471.605 10.7254 471.759 11.2091C471.912 11.6928 471.976 12.2051 471.946 12.716C471.946 14.9433 471.863 17.2307 471.946 19.3978C472.112 20.2665 472.395 21.1034 472.786 21.8808H470.031L469.742 19.7288C468.833 20.406 468.075 20.9629 467.331 21.5498C466.794 22.0292 466.134 22.313 465.442 22.3616C464.75 22.4102 464.062 22.221 463.473 21.8206C462.965 21.4996 462.564 21.0097 462.329 20.4223C462.093 19.8349 462.036 19.1806 462.165 18.555C462.178 17.7943 462.414 17.0583 462.838 16.4545C463.262 15.8507 463.851 15.4108 464.52 15.1991C466.284 14.6573 468.047 14.2209 469.852 13.7092ZM469.742 14.4617C468.296 14.8684 466.874 15.3709 465.485 15.9666C464.939 16.3305 464.537 16.9044 464.358 17.5756C464.18 18.2467 464.238 18.9665 464.52 19.5934C464.777 20.1355 465.217 20.5471 465.747 20.7409C466.277 20.9348 466.855 20.8956 467.358 20.6318C469.701 19.9245 470.389 18.3142 469.742 14.4617Z" fill="#E5E5E5" stroke="black" stroke-width="6" mask="url(#path-24-inside-23)"/>
</g>
</g>
<g id="2">
<g id="Vector_24">
<mask id="path-25-inside-24" fill="white">
<path d="M327.661 20.5716C326.538 21.7159 325.086 22.3986 323.553 22.5029C322.02 22.6072 320.501 22.1267 319.257 21.1434C317.039 19.3526 316.75 16.704 317.163 13.9801C317.405 12.4897 318.097 11.1305 319.128 10.1189C320.159 9.10724 321.47 8.50114 322.853 8.39695C326.173 8.08092 328.363 10.7145 328.005 14.9132H319.739C319.023 20.09 322.123 22.0012 327.661 20.5716ZM325.787 14.1908C326.132 11.181 325.016 9.31494 322.935 9.22465C320.635 9.13435 319.464 10.7295 319.546 14.1908H325.787Z"/>
</mask>
<path d="M327.661 20.5716C326.538 21.7159 325.086 22.3986 323.553 22.5029C322.02 22.6072 320.501 22.1267 319.257 21.1434C317.039 19.3526 316.75 16.704 317.163 13.9801C317.405 12.4897 318.097 11.1305 319.128 10.1189C320.159 9.10724 321.47 8.50114 322.853 8.39695C326.173 8.08092 328.363 10.7145 328.005 14.9132H319.739C319.023 20.09 322.123 22.0012 327.661 20.5716ZM325.787 14.1908C326.132 11.181 325.016 9.31494 322.935 9.22465C320.635 9.13435 319.464 10.7295 319.546 14.1908H325.787Z" fill="#E5E5E5" stroke="black" stroke-width="6" mask="url(#path-25-inside-24)"/>
</g>
</g>
<g id="14">
<g id="Vector_25">
<mask id="path-26-inside-25" fill="white">
<path d="M513.015 22.2872L513.318 18.3142H513.635C513.751 18.4951 513.844 18.6926 513.911 18.9011C514.003 19.5199 514.237 20.1029 514.592 20.5956C514.946 21.0884 515.41 21.4747 515.938 21.7183C516.467 21.962 517.044 22.055 517.614 21.9887C518.185 21.9223 518.731 21.6988 519.201 21.3391C519.569 21.0634 519.876 20.7015 520.1 20.2798C520.324 19.858 520.459 19.3871 520.496 18.9011C520.496 18.1638 519.545 17.2608 518.829 16.8545C517.755 16.3859 516.643 16.0281 515.509 15.786C514.885 15.6298 514.322 15.2617 513.901 14.7345C513.48 14.2073 513.223 13.5481 513.167 12.8515C513.09 12.1587 513.202 11.4567 513.489 10.8331C513.776 10.2095 514.224 9.69193 514.778 9.34508C515.762 8.71399 516.882 8.38126 518.023 8.38126C519.164 8.38126 520.284 8.71399 521.267 9.34508V11.6024C520.358 10.6583 519.339 9.84877 518.236 9.19458C517.914 9.05699 517.568 8.99562 517.222 9.0145C516.876 9.03338 516.538 9.13208 516.23 9.30411C515.921 9.47614 515.649 9.7176 515.433 10.0126C515.216 10.3076 515.059 10.6494 514.971 11.0155C514.654 12.5204 515.233 13.318 516.997 13.9049C518.057 14.251 519.132 14.5219 520.165 14.8831C522.232 15.6205 523.113 17.5467 521.956 19.5332C521.249 20.7897 520.155 21.729 518.87 22.1818C516.928 22.4461 514.965 22.4814 513.015 22.2872Z"/>
</mask>
<path d="M513.015 22.2872L513.318 18.3142H513.635C513.751 18.4951 513.844 18.6926 513.911 18.9011C514.003 19.5199 514.237 20.1029 514.592 20.5956C514.946 21.0884 515.41 21.4747 515.938 21.7183C516.467 21.962 517.044 22.055 517.614 21.9887C518.185 21.9223 518.731 21.6988 519.201 21.3391C519.569 21.0634 519.876 20.7015 520.1 20.2798C520.324 19.858 520.459 19.3871 520.496 18.9011C520.496 18.1638 519.545 17.2608 518.829 16.8545C517.755 16.3859 516.643 16.0281 515.509 15.786C514.885 15.6298 514.322 15.2617 513.901 14.7345C513.48 14.2073 513.223 13.5481 513.167 12.8515C513.09 12.1587 513.202 11.4567 513.489 10.8331C513.776 10.2095 514.224 9.69193 514.778 9.34508C515.762 8.71399 516.882 8.38126 518.023 8.38126C519.164 8.38126 520.284 8.71399 521.267 9.34508V11.6024C520.358 10.6583 519.339 9.84877 518.236 9.19458C517.914 9.05699 517.568 8.99562 517.222 9.0145C516.876 9.03338 516.538 9.13208 516.23 9.30411C515.921 9.47614 515.649 9.7176 515.433 10.0126C515.216 10.3076 515.059 10.6494 514.971 11.0155C514.654 12.5204 515.233 13.318 516.997 13.9049C518.057 14.251 519.132 14.5219 520.165 14.8831C522.232 15.6205 523.113 17.5467 521.956 19.5332C521.249 20.7897 520.155 21.729 518.87 22.1818C516.928 22.4461 514.965 22.4814 513.015 22.2872Z" fill="#E5E5E5" stroke="black" stroke-width="6" mask="url(#path-26-inside-25)"/>
</g>
</g>
<g id="so">
<g id="son">
<g id="Vector_26">
<mask id="path-27-inside-26" fill="white">
<path d="M174.71 11.9485C174.484 11.1485 174.043 10.4417 173.443 9.92075C172.843 9.39977 172.113 9.08893 171.348 9.02901C170.719 8.91012 170.072 9.05059 169.533 9.42317C168.993 9.79574 168.599 10.3739 168.428 11.0456C168.111 12.7311 169.006 13.4534 170.329 13.8447C171.652 14.236 172.561 14.4918 173.663 14.8831C174.121 14.9687 174.552 15.1794 174.915 15.4957C175.279 15.812 175.563 16.2236 175.742 16.6921C175.92 17.1607 175.988 17.671 175.937 18.1757C175.887 18.6803 175.721 19.1628 175.454 19.5784C175.159 20.3328 174.681 20.985 174.071 21.4649C173.462 21.9448 172.745 22.2343 171.996 22.3022C170.26 22.4527 168.524 22.3022 166.733 22.3022V17.938C167.091 18.4045 167.27 18.5249 167.312 18.7055C168.056 21.5046 169.172 22.2571 171.789 21.7153C172.402 21.6417 172.969 21.3255 173.383 20.8264C173.796 20.3273 174.028 19.6798 174.035 19.0065C174.035 17.637 173.236 16.9899 172.12 16.6739C171.004 16.3579 170.108 16.102 169.089 15.786C168.431 15.6543 167.831 15.287 167.384 14.7421C166.938 14.1972 166.67 13.5057 166.623 12.7762C166.548 12.0503 166.678 11.3167 166.996 10.6738C167.313 10.0309 167.803 9.50949 168.4 9.17951C169.374 8.60949 170.466 8.32256 171.571 8.34627C172.676 8.36999 173.757 8.70356 174.71 9.31494V11.9485Z"/>
</mask>
<path d="M174.71 11.9485C174.484 11.1485 174.043 10.4417 173.443 9.92075C172.843 9.39977 172.113 9.08893 171.348 9.02901C170.719 8.91012 170.072 9.05059 169.533 9.42317C168.993 9.79574 168.599 10.3739 168.428 11.0456C168.111 12.7311 169.006 13.4534 170.329 13.8447C171.652 14.236 172.561 14.4918 173.663 14.8831C174.121 14.9687 174.552 15.1794 174.915 15.4957C175.279 15.812 175.563 16.2236 175.742 16.6921C175.92 17.1607 175.988 17.671 175.937 18.1757C175.887 18.6803 175.721 19.1628 175.454 19.5784C175.159 20.3328 174.681 20.985 174.071 21.4649C173.462 21.9448 172.745 22.2343 171.996 22.3022C170.26 22.4527 168.524 22.3022 166.733 22.3022V17.938C167.091 18.4045 167.27 18.5249 167.312 18.7055C168.056 21.5046 169.172 22.2571 171.789 21.7153C172.402 21.6417 172.969 21.3255 173.383 20.8264C173.796 20.3273 174.028 19.6798 174.035 19.0065C174.035 17.637 173.236 16.9899 172.12 16.6739C171.004 16.3579 170.108 16.102 169.089 15.786C168.431 15.6543 167.831 15.287 167.384 14.7421C166.938 14.1972 166.67 13.5057 166.623 12.7762C166.548 12.0503 166.678 11.3167 166.996 10.6738C167.313 10.0309 167.803 9.50949 168.4 9.17951C169.374 8.60949 170.466 8.32256 171.571 8.34627C172.676 8.36999 173.757 8.70356 174.71 9.31494V11.9485Z" fill="#E5E5E5" stroke="black" stroke-width="6" mask="url(#path-27-inside-26)"/>
</g>
</g>
</g>
<g id="3">
<g id="Vector_27">
<mask id="path-28-inside-27" fill="white">
<path d="M345.309 9.20963V11.5572C344.391 10.6199 343.362 9.82034 342.251 9.17952C341.928 9.04234 341.582 8.98222 341.237 9.00319C340.891 9.02416 340.553 9.12574 340.247 9.30111C339.94 9.47647 339.671 9.72154 339.458 10.0198C339.246 10.3181 339.094 10.6628 339.013 11.0305C338.696 12.5354 339.289 13.318 341.066 13.8898C342.113 14.236 343.187 14.5068 344.221 14.868C346.315 15.6054 347.169 17.4865 346.012 19.5031C345.309 20.7544 344.227 21.697 342.953 22.1667C341.029 22.4278 339.085 22.4682 337.153 22.2871L337.346 17.7725C337.564 18.1064 337.758 18.4586 337.925 18.8259C338.682 21.5497 340.115 22.4376 342.623 21.6701C343.169 21.5469 343.661 21.2285 344.023 20.7652C344.385 20.3019 344.595 19.7201 344.62 19.1118C344.703 17.7273 343.945 17.0501 342.815 16.719C341.686 16.3879 340.694 16.1171 339.633 15.7709C338.983 15.6321 338.393 15.2612 337.956 14.7164C337.52 14.1715 337.262 13.4838 337.222 12.7612C337.157 12.0351 337.296 11.3045 337.621 10.6671C337.946 10.0298 338.441 9.51598 339.041 9.19456C340.012 8.65529 341.087 8.37548 342.176 8.3781C343.266 8.38071 344.34 8.6657 345.309 9.20963Z"/>
</mask>
<path d="M345.309 9.20963V11.5572C344.391 10.6199 343.362 9.82034 342.251 9.17952C341.928 9.04234 341.582 8.98222 341.237 9.00319C340.891 9.02416 340.553 9.12574 340.247 9.30111C339.94 9.47647 339.671 9.72154 339.458 10.0198C339.246 10.3181 339.094 10.6628 339.013 11.0305C338.696 12.5354 339.289 13.318 341.066 13.8898C342.113 14.236 343.187 14.5068 344.221 14.868C346.315 15.6054 347.169 17.4865 346.012 19.5031C345.309 20.7544 344.227 21.697 342.953 22.1667C341.029 22.4278 339.085 22.4682 337.153 22.2871L337.346 17.7725C337.564 18.1064 337.758 18.4586 337.925 18.8259C338.682 21.5497 340.115 22.4376 342.623 21.6701C343.169 21.5469 343.661 21.2285 344.023 20.7652C344.385 20.3019 344.595 19.7201 344.62 19.1118C344.703 17.7273 343.945 17.0501 342.815 16.719C341.686 16.3879 340.694 16.1171 339.633 15.7709C338.983 15.6321 338.393 15.2612 337.956 14.7164C337.52 14.1715 337.262 13.4838 337.222 12.7612C337.157 12.0351 337.296 11.3045 337.621 10.6671C337.946 10.0298 338.441 9.51598 339.041 9.19456C340.012 8.65529 341.087 8.37548 342.176 8.3781C343.266 8.38071 344.34 8.6657 345.309 9.20963Z" fill="#E5E5E5" stroke="black" stroke-width="6" mask="url(#path-28-inside-27)"/>
</g>
</g>
<g id="1">
<g id="Vector_28">
<mask id="path-29-inside-28" fill="white">
<path d="M300.314 9.75139L304.226 8.63776L304.461 11.497C305.907 9.99215 306.858 7.71977 309.338 8.89359L309.035 11.482C308.031 11.153 306.979 11.0356 305.935 11.1359C304.557 11.6175 304.35 13.1374 304.35 14.5821V20.9779L306.624 21.5949V21.8959H300.424V21.7003L302.146 21.1585V10.6242L300.438 10.1728L300.314 9.75139Z"/>
</mask>
<path d="M300.314 9.75139L304.226 8.63776L304.461 11.497C305.907 9.99215 306.858 7.71977 309.338 8.89359L309.035 11.482C308.031 11.153 306.979 11.0356 305.935 11.1359C304.557 11.6175 304.35 13.1374 304.35 14.5821V20.9779L306.624 21.5949V21.8959H300.424V21.7003L302.146 21.1585V10.6242L300.438 10.1728L300.314 9.75139Z" fill="#E5E5E5" stroke="black" stroke-width="6" mask="url(#path-29-inside-28)"/>
</g>
</g>
<g id="4">
<g id="Vector_29">
<mask id="path-30-inside-29" fill="white">
<path d="M354.994 15.7409L355.49 14.0403H362.255L361.759 15.7409H354.994Z"/>
</mask>
<path d="M354.994 15.7409L355.49 14.0403H362.255L361.759 15.7409H354.994Z" fill="#E5E5E5" stroke="black" stroke-width="6" mask="url(#path-30-inside-29)"/>
</g>
</g>
<g id="i8">
<g id="Vector_30">
<mask id="path-31-inside-30" fill="white">
<path d="M449.021 21.0832V10.6242L447.189 10.1728V9.78148L451.474 8.51736V21.0983L453.017 21.7153V21.9109H447.286L449.021 21.0832Z"/>
</mask>
<path d="M449.021 21.0832V10.6242L447.189 10.1728V9.78148L451.474 8.51736V21.0983L453.017 21.7153V21.9109H447.286L449.021 21.0832Z" fill="#E5E5E5" stroke="black" stroke-width="6" mask="url(#path-31-inside-30)"/>
</g>
<g id="Vector_31">
<mask id="path-32-inside-31" fill="white">
<path d="M452.107 3.61141C451.115 4.27355 450.523 4.96577 450.055 4.89053C449.586 4.81528 449.201 3.94246 448.773 3.38566C449.214 2.94925 449.669 2.18179 450.151 2.18179C450.633 2.18179 451.143 2.90412 452.107 3.61141Z"/>
</mask>
<path d="M452.107 3.61141C451.115 4.27355 450.523 4.96577 450.055 4.89053C449.586 4.81528 449.201 3.94246 448.773 3.38566C449.214 2.94925 449.669 2.18179 450.151 2.18179C450.633 2.18179 451.143 2.90412 452.107 3.61141Z" fill="#E5E5E5" stroke="black" stroke-width="6" mask="url(#path-32-inside-31)"/>
</g>
</g>
<g id="i">
<g id="Vector_32">
<mask id="path-33-inside-32" fill="white">
<path d="M405.059 10.6242L403.186 10.1276V9.7514L407.512 8.57758V21.0531L409.399 21.8959H403.392L405.087 21.0682L405.059 10.6242Z"/>
</mask>
<path d="M405.059 10.6242L403.186 10.1276V9.7514L407.512 8.57758V21.0531L409.399 21.8959H403.392L405.087 21.0682L405.059 10.6242Z" fill="#E5E5E5" stroke="black" stroke-width="6" mask="url(#path-33-inside-32)"/>
</g>
<g id="Vector_33">
<mask id="path-34-inside-33" fill="white">
<path d="M408.159 3.67159C407.14 4.30364 406.547 4.98083 406.079 4.89054C405.797 4.75565 405.55 4.54829 405.358 4.28621C405.166 4.02412 405.035 3.71511 404.977 3.38566C404.977 3.02449 405.79 2.22692 406.217 2.24197C406.644 2.25701 407.195 2.9342 408.159 3.67159Z"/>
</mask>
<path d="M408.159 3.67159C407.14 4.30364 406.547 4.98083 406.079 4.89054C405.797 4.75565 405.55 4.54829 405.358 4.28621C405.166 4.02412 405.035 3.71511 404.977 3.38566C404.977 3.02449 405.79 2.22692 406.217 2.24197C406.644 2.25701 407.195 2.9342 408.159 3.67159Z" fill="#E5E5E5" stroke="black" stroke-width="6" mask="url(#path-34-inside-33)"/>
</g>
</g>
</g>
</svg>
